<svg width="21" height="19" viewBox="0 0 21 19" fill="none" xmlns="http://www.w3.org/2000/svg">
<path fill-rule="evenodd" clip-rule="evenodd" d="M10.7024 0.249756C9.63588 0.249756 8.59331 0.539824 7.70654 1.08328C6.81976 1.62673 6.12861 2.39917 5.72047 3.3029C5.31233 4.20663 5.20555 5.20107 5.41361 6.16047C5.62168 7.11987 6.13525 8.00113 6.88939 8.69282C7.64353 9.38451 8.60437 9.85555 9.65039 10.0464C10.6964 10.2372 11.7806 10.1393 12.766 9.76494C13.7513 9.3906 14.5935 8.75668 15.186 7.94335C15.7785 7.13001 16.0948 6.17378 16.0948 5.19559C16.0948 3.88387 15.5267 2.62588 14.5154 1.69836C13.5041 0.770833 12.1325 0.249756 10.7024 0.249756ZM10.7024 1.48621C11.5023 1.48621 12.2842 1.70376 12.9493 2.11136C13.6144 2.51895 14.1327 3.09827 14.4388 3.77607C14.7449 4.45387 14.825 5.1997 14.669 5.91925C14.5129 6.6388 14.1277 7.29975 13.5621 7.81851C12.9965 8.33728 12.2759 8.69056 11.4914 8.83369C10.7069 8.97681 9.8937 8.90336 9.15471 8.6226C8.41571 8.34185 7.78408 7.86641 7.33968 7.25641C6.89529 6.6464 6.6581 5.92923 6.6581 5.19559C6.6581 4.2118 7.08419 3.26831 7.84264 2.57266C8.6011 1.87702 9.62978 1.48621 10.7024 1.48621Z" fill="black"/>
<path fill-rule="evenodd" clip-rule="evenodd" d="M10.7025 11.5017C6.88937 11.5017 3.58586 12.2281 1.93983 13.2451C1.56058 13.4351 1.23879 13.7086 1.00346 14.041C0.768129 14.3734 0.626639 14.7542 0.591736 15.1493C0.626639 15.5443 0.768129 15.9252 1.00346 16.2576C1.23879 16.59 1.56058 16.8635 1.93983 17.0534C3.58586 18.0704 6.88937 18.7968 10.7025 18.7968C14.5156 18.7968 17.8191 18.0704 19.4651 17.0534C19.8444 16.8635 20.1661 16.59 20.4015 16.2576C20.6368 15.9252 20.7783 15.5443 20.8132 15.1493C20.7783 14.7542 20.6368 14.3734 20.4015 14.041C20.1661 13.7086 19.8444 13.4351 19.4651 13.2451C17.8191 12.2281 14.5156 11.5017 10.7025 11.5017ZM10.7025 12.7382C13.2067 12.6644 15.7005 13.0663 18.0274 13.9184C18.45 14.088 18.8366 14.325 19.1692 14.6182C19.2608 14.6789 19.3354 14.7588 19.3868 14.8511C19.4382 14.9434 19.4651 15.0456 19.4651 15.1493C19.4651 15.2529 19.4382 15.3551 19.3868 15.4474C19.3354 15.5398 19.2608 15.6196 19.1692 15.6803C18.8366 15.9736 18.45 16.2105 18.0274 16.3802C15.7005 17.2323 13.2067 17.6341 10.7025 17.5604C8.19826 17.6341 5.70446 17.2323 3.37758 16.3802C2.95493 16.2105 2.56835 15.9736 2.23574 15.6803C2.14414 15.6196 2.06956 15.5398 2.01813 15.4474C1.96669 15.3551 1.93988 15.2529 1.93988 15.1493C1.93988 15.0456 1.96669 14.9434 2.01813 14.8511C2.06956 14.7588 2.14414 14.6789 2.23574 14.6182C2.56835 14.325 2.95493 14.088 3.37758 13.9184C5.70446 13.0663 8.19826 12.6644 10.7025 12.7382Z" fill="black"/>
</svg>
