<svg width="51" height="52" viewBox="0 0 51 52" fill="none" xmlns="http://www.w3.org/2000/svg">
<path fill-rule="evenodd" clip-rule="evenodd" d="M3.75591 34.1086L20.541 35.809L28.0924 49.5757C28.4381 50.2036 28.9823 50.7228 29.6548 51.0662C30.3272 51.4096 31.0971 51.5616 31.8653 51.5026C32.6334 51.4436 33.3645 51.1762 33.9643 50.735C34.5642 50.2938 35.0053 49.6989 35.2308 49.0271L50.0287 4.7429C50.2625 4.04287 50.2509 3.29381 49.9955 2.60009C49.7401 1.90636 49.2536 1.30253 48.6039 0.872704C47.9541 0.44288 47.1734 0.208479 46.3706 0.202158C45.5678 0.195836 44.7828 0.417909 44.125 0.837436L1.96164 27.7326C1.31935 28.1425 0.829325 28.721 0.556827 29.3911C0.284328 30.0612 0.242287 30.7911 0.436303 31.4835C0.63032 32.176 1.05118 32.7981 1.64285 33.267C2.23451 33.736 2.96889 34.0296 3.74819 34.1086H3.75591ZM46.336 3.71774L31.5497 48.0037L23.5276 33.3806C23.3836 33.1179 23.1698 32.8923 22.9056 32.7243C22.6414 32.5563 22.3352 32.4512 22.015 32.4188L4.18229 30.6129L46.336 3.71774Z" fill="black"/>
</svg>
